<?xml version="1.0" encoding="UTF-8" standalone="no"?>
<!-- Created with Inkscape (http://www.inkscape.org/) -->

<svg
   xmlns:dc="http://purl.org/dc/elements/1.1/"
   xmlns:cc="http://creativecommons.org/ns#"
   xmlns:rdf="http://www.w3.org/1999/02/22-rdf-syntax-ns#"
   xmlns:svg="http://www.w3.org/2000/svg"
   xmlns="http://www.w3.org/2000/svg"
   xmlns:sodipodi="http://sodipodi.sourceforge.net/DTD/sodipodi-0.dtd"
   xmlns:inkscape="http://www.inkscape.org/namespaces/inkscape"
   width="210mm"
   height="297mm"
   viewBox="0 0 744.09448819 1052.3622047"
   id="svg2"
   version="1.1"
   inkscape:version="0.92.3 (2405546, 2018-03-11)"
   sodipodi:docname="grapes.svg">
  <defs
     id="defs4" />
  <sodipodi:namedview
     id="base"
     pagecolor="#ffffff"
     bordercolor="#666666"
     borderopacity="1.0"
     inkscape:pageopacity="0.0"
     inkscape:pageshadow="2"
     inkscape:zoom="0.51179529"
     inkscape:cx="755.80442"
     inkscape:cy="278.10158"
     inkscape:document-units="px"
     inkscape:current-layer="layer1"
     showgrid="false"
     inkscape:showpageshadow="false"
     showborder="false"
     inkscape:window-width="1857"
     inkscape:window-height="1057"
     inkscape:window-x="55"
     inkscape:window-y="-8"
     inkscape:window-maximized="1" />
  <metadata
     id="metadata7">
    <rdf:RDF>
      <cc:Work
         rdf:about="">
        <dc:format>image/svg+xml</dc:format>
        <dc:type
           rdf:resource="http://purl.org/dc/dcmitype/StillImage" />
        <dc:title />
      </cc:Work>
    </rdf:RDF>
  </metadata>
  <g
     inkscape:label="Calque 1"
     inkscape:groupmode="layer"
     id="layer1">
    <g
       id="g4277">
      <rect
         inkscape:export-ydpi="90"
         inkscape:export-xdpi="90"
         ry="0.134593"
         y="373.5397"
         x="181.82745"
         height="512"
         width="512"
         id="rect4136"
         style="opacity:1;fill:#ffffff;fill-opacity:1;stroke:none;stroke-width:9.64400005;stroke-linecap:round;stroke-linejoin:round;stroke-miterlimit:4;stroke-dasharray:none;stroke-dashoffset:0;stroke-opacity:1" />
      <g
         inkscape:export-ydpi="90"
         inkscape:export-xdpi="90"
         transform="matrix(-0.8112173,-0.52382265,-0.50653276,0.78444134,1088.6911,286.6675)"
         id="g4271">
        <path
           style="fill:#005a01;fill-opacity:1"
           d="m 392.7873,444.72413 c 2.01106,3.04925 4.33538,5.04286 6.09603,5.22867 4.01983,-0.39002 8.29353,0.28957 13.40015,-1.33322 -1.37905,5.77593 -2.17496,12.53455 3.15931,15.72015 2.30296,1.31829 8.82881,2.39869 11.34542,1.87831 -3.06937,6.25415 -3.41039,14.51213 -3.45763,18.97093 -0.0247,3.23296 0.59231,4.28636 3.48079,5.94309 2.27775,2.17478 4.13528,1.37934 8.11251,1.48237 0.30077,3.05225 -11.00226,11.42723 -12.69465,12.84868 -7.96841,6.67982 -9.64891,8.58279 -9.92457,11.23849 -0.18336,1.76646 1.89929,4.38367 4.13695,5.1988 0.70012,0.25503 1.25584,0.62857 1.23492,0.83008 -0.0744,0.7168 -5.72602,4.79264 -8.88755,6.40952 -3.60466,1.84352 -6.62932,2.68867 -10.20368,2.85113 -2.40059,0.1091 -4.22532,0.65224 -3.78077,1.12533 0.1272,0.13538 1.83401,1.35191 3.79292,2.7034 5.08012,3.5049 8.81161,6.73678 10.81306,9.36532 1.7295,2.27138 4.16386,6.55922 4.09585,7.21438 -0.0197,0.18989 -0.99335,0.39811 -2.16365,0.46269 -3.21024,0.17717 -4.84918,1.47797 -5.0446,4.00379 -0.20585,2.6602 1.15116,6.18315 5.47044,14.20218 3.74612,6.95493 6.12211,12.62623 5.95828,14.22195 -0.0928,0.90369 -0.4738,0.95443 -3.55283,0.4732 -6.66269,-1.04135 -9.62966,1.45455 -9.66077,8.12689 -0.0338,7.24296 -0.46966,13.37506 -0.99427,13.9871 -0.41912,0.48898 -1.39521,0.22872 -4.40686,-1.17485 -2.12767,-0.99162 -5.24499,-1.98677 -6.92736,-2.21147 -4.82688,-0.64463 -6.61049,1.21416 -8.16457,8.50863 -0.47805,2.24373 -1.10398,3.70265 -1.84767,4.30646 -0.61859,0.50224 -0.94304,0.93578 -0.72099,0.96343 0.45472,0.0562 -1.1482,0.9416 -1.63703,0.90386 -0.17258,-0.0139 -1.28384,-1.12702 -2.46932,-2.47489 -3.20463,-3.64356 -6.41288,-6.07241 -8.27303,-6.26318 -1.76262,-0.18096 -4.72793,0.99488 -7.14466,2.83271 -1.98634,1.51053 -2.68323,0.84256 -3.28639,-3.14993 -0.27196,-1.79986 -0.94014,-3.86465 -1.48494,-4.58838 -1.3222,-1.7565 -4.49265,-3.29741 -8.64717,-4.20272 -4.04242,-0.88087 -4.84986,-1.85499 -3.5544,-4.28815 0.45775,-0.85976 1.18701,-2.22713 1.62056,-3.03859 0.72296,-1.3531 0.62489,-1.7687 -1.1832,-5.01426 -2.33393,-4.18948 -5.33026,-6.41679 -8.23887,-6.1244 -2.21102,0.22226 -5.09103,1.65445 -9.06294,4.50682 -3.4543,2.48066 -6.69577,4.21421 -8.51035,4.55137 -1.01135,0.18797 -1.332,-0.0668 -1.70017,-1.35026 -3.57762,-12.4728 -5.83742,-14.16096 -14.67698,-10.96427 -5.21948,1.88755 -5.90595,1.93819 -7.50261,0.55341 -1.00358,-0.87037 -1.06457,-1.42042 -0.62699,-5.65382 0.72848,-7.04705 -0.8731,-9.46378 -7.31459,-11.0377 -2.96292,-0.72398 -2.94614,-1.43903 0.0973,-4.14166 3.96157,-3.518 4.19832,-5.68789 1.29483,-11.86679 -0.97884,-2.08306 -1.75379,-4.03718 -1.7221,-4.3425 0.1042,-1.00387 3.11661,-1.74364 6.8785,-1.68915 2.03432,0.0295 7.42475,-0.0212 8.26841,-0.33088 1.35646,-0.49788 1.54943,-0.84 1.66798,-2.95733 0.17125,-3.05887 -3.96953,-5.11707 -7.12004,-7.12571 -2.31376,-1.47515 -3.33704,-1.71799 -12.74358,-3.02424 -10.04858,-1.39541 -21.13944,1.07435 -20.46065,-0.14481 1.72418,-3.09675 10.54125,-11.49958 10.41641,-13.01823 -1.03951,-9.26687 -19.63331,-9.27053 -23.89752,-12.41856 10.15411,-4.08766 10.44259,-6.4847 2.21537,-19.12598 13.84113,1.15106 16.13973,-1.0768 14.65881,-11.84177 4.22767,2.99418 22.91892,7.69589 26.55979,6.13459 2.81808,-1.28106 6.91943,-5.41329 7.10007,-7.15352 0.0633,-0.6103 0.39581,-1.24523 0.73881,-1.41099 4.36939,1.73421 5.42176,16.41259 10.14525,17.326 1.3163,0.13664 1.48296,-0.0401 1.66178,-1.76293 1.016,-8.34998 -8.91459,-21.3545 -14.0479,-25.905 5.93607,-3.02416 7.88356,-5.57273 4.76853,-11.96889 -2.45415,-4.90573 -1.9422,-5.45978 2.77959,-3.0082 5.49835,2.85479 7.98177,1.89658 8.51987,-3.28733 0.19034,-1.83376 0.6162,-3.07193 1.22717,-3.56799 1.96456,-1.59507 3.56434,-0.60513 8.41693,5.2084 4.67569,5.60161 7.02458,7.53298 9.4702,7.78684 1.64136,0.17037 2.38176,-0.1972 4.99603,-2.48025 1.68801,-1.47415 3.47958,-2.63766 3.98125,-2.58558 1.38473,0.14374 5.54944,5.62384 9.57976,12.60542 3.78941,6.56432 5.53256,19.97978 12.62351,21.84573 2.08201,0.19832 5.82773,-1.21856 7.3373,-2.77552 3.65841,-5.99868 -2.40041,-21.43903 -1.98952,-27.99794 l 5.62688,0.7316 c 7.7103,1.00248 8.04147,2.44472 10.44048,-3.78149 0.75436,-1.9578 2.38469,-3.28538 2.86665,-3.32329 0.49997,-0.0394 1.64786,1.10088 2.6728,2.65494 z"
           id="path4273"
           inkscape:connector-curvature="0"
           sodipodi:nodetypes="cccccccccscssscsssscscsssssssccscsssssssssscssssssssssssscccccscccccsssssssscccssccc"
           inkscape:export-xdpi="90"
           inkscape:export-ydpi="90" />
        <path
           inkscape:export-ydpi="90"
           inkscape:export-xdpi="90"
           sodipodi:nodetypes="cc"
           inkscape:connector-curvature="0"
           id="path4275"
           d="m 296.99306,503.23604 c 25.32841,2.25914 52.82622,1.01616 102.79849,32.89473"
           style="fill:none;fill-rule:evenodd;stroke:#36c936;stroke-width:2.70000005;stroke-linecap:round;stroke-linejoin:round;stroke-miterlimit:4;stroke-dasharray:none;stroke-opacity:1" />
      </g>
      <g
         inkscape:export-ydpi="90"
         inkscape:export-xdpi="90"
         id="g4267">
        <path
           inkscape:export-ydpi="90"
           inkscape:export-xdpi="90"
           sodipodi:nodetypes="cccccccccscssscsssscscsssssssccscsssssssssscssssssssssssscccccscccccsssssssscccssccc"
           inkscape:connector-curvature="0"
           id="path4192-0"
           d="m 398.06013,448.24514 c 2.01106,3.04925 4.33538,5.04286 6.09603,5.22867 4.01983,-0.39002 8.29353,0.28957 13.40015,-1.33322 -1.37905,5.77593 -2.17496,12.53455 3.15931,15.72015 2.30296,1.31829 8.82881,2.39869 11.34542,1.87831 -3.06937,6.25415 -3.41039,14.51213 -3.45763,18.97093 -0.0247,3.23296 0.59231,4.28636 3.48079,5.94309 2.27775,2.17478 4.13528,1.37934 8.11251,1.48237 0.30077,3.05225 -11.00226,11.42723 -12.69465,12.84868 -7.96841,6.67982 -9.64891,8.58279 -9.92457,11.23849 -0.18336,1.76646 1.89929,4.38367 4.13695,5.1988 0.70012,0.25503 1.25584,0.62857 1.23492,0.83008 -0.0744,0.7168 -5.72602,4.79264 -8.88755,6.40952 -3.60466,1.84352 -6.62932,2.68867 -10.20368,2.85113 -2.40059,0.1091 -4.22532,0.65224 -3.78077,1.12533 0.1272,0.13538 1.83401,1.35191 3.79292,2.7034 5.08012,3.5049 8.81161,6.73678 10.81306,9.36532 1.7295,2.27138 4.16386,6.55922 4.09585,7.21438 -0.0197,0.18989 -0.99335,0.39811 -2.16365,0.46269 -3.21024,0.17717 -4.84918,1.47797 -5.0446,4.00379 -0.20585,2.6602 1.15116,6.18315 5.47044,14.20218 3.74612,6.95493 6.12211,12.62623 5.95828,14.22195 -0.0928,0.90369 -0.4738,0.95443 -3.55283,0.4732 -6.66269,-1.04135 -9.62966,1.45455 -9.66077,8.12689 -0.0338,7.24296 -0.46966,13.37506 -0.99427,13.9871 -0.41912,0.48898 -1.39521,0.22872 -4.40686,-1.17485 -2.12767,-0.99162 -5.24499,-1.98677 -6.92736,-2.21147 -4.82688,-0.64463 -6.61049,1.21416 -8.16457,8.50863 -0.47805,2.24373 -1.10398,3.70265 -1.84767,4.30646 -0.61859,0.50224 -0.94304,0.93578 -0.72099,0.96343 0.45472,0.0562 -1.1482,0.9416 -1.63703,0.90386 -0.17258,-0.0139 -1.28384,-1.12702 -2.46932,-2.47489 -3.20463,-3.64356 -6.41288,-6.07241 -8.27303,-6.26318 -1.76262,-0.18096 -4.72793,0.99488 -7.14466,2.83271 -1.98634,1.51053 -2.68323,0.84256 -3.28639,-3.14993 -0.27196,-1.79986 -0.94014,-3.86465 -1.48494,-4.58838 -1.3222,-1.7565 -4.49265,-3.29741 -8.64717,-4.20272 -4.04242,-0.88087 -4.84986,-1.85499 -3.5544,-4.28815 0.45775,-0.85976 1.18701,-2.22713 1.62056,-3.03859 0.72296,-1.3531 0.62489,-1.7687 -1.1832,-5.01426 -2.33393,-4.18948 -5.33026,-6.41679 -8.23887,-6.1244 -2.21102,0.22226 -5.09103,1.65445 -9.06294,4.50682 -3.4543,2.48066 -6.69577,4.21421 -8.51035,4.55137 -1.01135,0.18797 -1.332,-0.0668 -1.70017,-1.35026 -3.57762,-12.4728 -5.83742,-14.16096 -14.67698,-10.96427 -5.21948,1.88755 -5.90595,1.93819 -7.50261,0.55341 -1.00358,-0.87037 -1.06457,-1.42042 -0.62699,-5.65382 0.72848,-7.04705 -0.8731,-9.46378 -7.31459,-11.0377 -2.96292,-0.72398 -2.94614,-1.43903 0.0973,-4.14166 3.96157,-3.518 4.19832,-5.68789 1.29483,-11.86679 -0.97884,-2.08306 -1.75379,-4.03718 -1.7221,-4.3425 0.1042,-1.00387 3.11661,-1.74364 6.8785,-1.68915 2.03432,0.0295 7.42475,-0.0212 8.26841,-0.33088 1.35646,-0.49788 1.54943,-0.84 1.66798,-2.95733 0.17125,-3.05887 -3.96953,-5.11707 -7.12004,-7.12571 -2.31376,-1.47515 -3.33704,-1.71799 -12.74358,-3.02424 -10.04858,-1.39541 -21.13944,1.07435 -20.46065,-0.14481 1.72418,-3.09675 10.54125,-11.49958 10.41641,-13.01823 -1.03951,-9.26687 -19.63331,-9.27053 -23.89752,-12.41856 10.15411,-4.08766 10.44259,-6.4847 2.21537,-19.12598 13.84113,1.15106 16.13973,-1.0768 14.65881,-11.84177 4.22767,2.99418 22.91892,7.69589 26.55979,6.13459 2.81808,-1.28106 6.91943,-5.41329 7.10007,-7.15352 0.0633,-0.6103 0.39581,-1.24523 0.73881,-1.41099 4.36939,1.73421 5.42176,16.41259 10.14525,17.326 1.3163,0.13664 1.48296,-0.0401 1.66178,-1.76293 1.016,-8.34998 -8.91459,-21.3545 -14.0479,-25.905 5.93607,-3.02416 7.88356,-5.57273 4.76853,-11.96889 -2.45415,-4.90573 -1.9422,-5.45978 2.77959,-3.0082 5.49835,2.85479 7.98177,1.89658 8.51987,-3.28733 0.19034,-1.83376 0.6162,-3.07193 1.22717,-3.56799 1.96456,-1.59507 3.56434,-0.60513 8.41693,5.2084 4.67569,5.60161 7.02458,7.53298 9.4702,7.78684 1.64136,0.17037 2.38176,-0.1972 4.99603,-2.48025 1.68801,-1.47415 3.47958,-2.63766 3.98125,-2.58558 1.38473,0.14374 5.54944,5.62384 9.57976,12.60542 3.78941,6.56432 5.53256,19.97978 12.62351,21.84573 2.08201,0.19832 5.82773,-1.21856 7.3373,-2.77552 3.65841,-5.99868 -2.40041,-21.43903 -1.98952,-27.99794 l 5.62688,0.7316 c 7.7103,1.00248 8.04147,2.44472 10.44048,-3.78149 0.75436,-1.9578 2.38469,-3.28538 2.86665,-3.32329 0.49997,-0.0394 1.64786,1.10088 2.6728,2.65494 z"
           style="fill:#007d01" />
        <path
           style="fill:none;fill-rule:evenodd;stroke:#36c936;stroke-width:2.70000005;stroke-linecap:round;stroke-linejoin:round;stroke-miterlimit:4;stroke-dasharray:none;stroke-opacity:1"
           d="m 296.99306,503.23604 c 25.32841,2.25914 52.82622,1.01616 102.79849,32.89473"
           id="path4225"
           inkscape:connector-curvature="0"
           sodipodi:nodetypes="cc"
           inkscape:export-xdpi="90"
           inkscape:export-ydpi="90" />
      </g>
      <circle
         inkscape:export-ydpi="90"
         inkscape:export-xdpi="90"
         r="32"
         cy="803.7522"
         cx="290.14728"
         id="circle4229"
         style="opacity:1;fill:#9cd61f;fill-opacity:1;stroke:none;stroke-width:9.64400005;stroke-linecap:round;stroke-linejoin:round;stroke-miterlimit:4;stroke-dasharray:none;stroke-dashoffset:0;stroke-opacity:1" />
      <path
         style="fill:none;fill-rule:evenodd;stroke:#9c6a1a;stroke-width:13.19999981;stroke-linecap:butt;stroke-linejoin:round;stroke-miterlimit:4;stroke-dasharray:none;stroke-opacity:1"
         d="m 558.24809,439.91897 c -25.15616,33.98666 -34.35624,27.59055 -72.8922,48.45281 -37.44925,20.27395 -63.75917,46.82456 -70.46365,61.10151 -6.70446,14.27696 -27.60246,82.38834 -27.60246,82.38834"
         id="path4223"
         inkscape:connector-curvature="0"
         sodipodi:nodetypes="cszc"
         inkscape:export-xdpi="90"
         inkscape:export-ydpi="90" />
      <circle
         inkscape:export-ydpi="90"
         inkscape:export-xdpi="90"
         r="32"
         cy="771.86469"
         cx="279.48737"
         id="path4138"
         style="opacity:1;fill:#aeff00;fill-opacity:1;stroke:none;stroke-width:9.64400005;stroke-linecap:round;stroke-linejoin:round;stroke-miterlimit:4;stroke-dasharray:none;stroke-dashoffset:0;stroke-opacity:1" />
      <circle
         inkscape:export-ydpi="90"
         inkscape:export-xdpi="90"
         style="opacity:1;fill:#d2ff71;fill-opacity:1;stroke:none;stroke-width:9.64400005;stroke-linecap:round;stroke-linejoin:round;stroke-miterlimit:4;stroke-dasharray:none;stroke-dashoffset:0;stroke-opacity:1"
         id="circle4149"
         cx="332.01529"
         cy="780.95605"
         r="32" />
      <circle
         inkscape:export-ydpi="90"
         inkscape:export-xdpi="90"
         r="32"
         cy="745.60071"
         cx="318.88333"
         id="circle4151"
         style="opacity:1;fill:#89c900;fill-opacity:1;stroke:none;stroke-width:9.64400005;stroke-linecap:round;stroke-linejoin:round;stroke-miterlimit:4;stroke-dasharray:none;stroke-dashoffset:0;stroke-opacity:1" />
      <circle
         inkscape:export-ydpi="90"
         inkscape:export-xdpi="90"
         style="opacity:1;fill:#00ff00;fill-opacity:1;stroke:none;stroke-width:9.64400005;stroke-linecap:round;stroke-linejoin:round;stroke-miterlimit:4;stroke-dasharray:none;stroke-dashoffset:0;stroke-opacity:1"
         id="circle4153"
         cx="329.995"
         cy="681.96112"
         r="32" />
      <circle
         inkscape:export-ydpi="90"
         inkscape:export-xdpi="90"
         r="32"
         cy="711.25549"
         cx="286.55844"
         id="circle4155"
         style="opacity:1;fill:#aeff00;fill-opacity:1;stroke:none;stroke-width:9.64400005;stroke-linecap:round;stroke-linejoin:round;stroke-miterlimit:4;stroke-dasharray:none;stroke-dashoffset:0;stroke-opacity:1" />
      <circle
         inkscape:export-ydpi="90"
         inkscape:export-xdpi="90"
         style="opacity:1;fill:#aeff00;fill-opacity:1;stroke:none;stroke-width:9.64400005;stroke-linecap:round;stroke-linejoin:round;stroke-miterlimit:4;stroke-dasharray:none;stroke-dashoffset:0;stroke-opacity:1"
         id="circle4157"
         cx="316.86301"
         cy="629.43317"
         r="32" />
      <circle
         inkscape:export-ydpi="90"
         inkscape:export-xdpi="90"
         r="32"
         cy="681.96112"
         cx="329.995"
         id="circle4159"
         style="opacity:1;fill:#a0eb00;fill-opacity:1;stroke:none;stroke-width:9.64400005;stroke-linecap:round;stroke-linejoin:round;stroke-miterlimit:4;stroke-dasharray:none;stroke-dashoffset:0;stroke-opacity:1" />
      <circle
         inkscape:export-ydpi="90"
         inkscape:export-xdpi="90"
         r="32"
         cy="628.41937"
         cx="507.96237"
         id="circle4231"
         style="opacity:1;fill:#9ac936;fill-opacity:1;stroke:none;stroke-width:9.64400005;stroke-linecap:round;stroke-linejoin:round;stroke-miterlimit:4;stroke-dasharray:none;stroke-dashoffset:0;stroke-opacity:1" />
      <circle
         inkscape:export-ydpi="90"
         inkscape:export-xdpi="90"
         style="opacity:1;fill:#a3e01f;fill-opacity:1;stroke:none;stroke-width:9.64400005;stroke-linecap:round;stroke-linejoin:round;stroke-miterlimit:4;stroke-dasharray:none;stroke-dashoffset:0;stroke-opacity:1"
         id="circle4161"
         cx="451.31485"
         cy="622.48474"
         r="32" />
      <circle
         inkscape:export-ydpi="90"
         inkscape:export-xdpi="90"
         r="32"
         cy="751.66162"
         cx="386.56354"
         id="circle4163"
         style="opacity:1;fill:#bbef4b;fill-opacity:1;stroke:none;stroke-width:9.64400005;stroke-linecap:round;stroke-linejoin:round;stroke-miterlimit:4;stroke-dasharray:none;stroke-dashoffset:0;stroke-opacity:1" />
      <circle
         inkscape:export-ydpi="90"
         inkscape:export-xdpi="90"
         style="opacity:1;fill:#9ac936;fill-opacity:1;stroke:none;stroke-width:9.64400005;stroke-linecap:round;stroke-linejoin:round;stroke-miterlimit:4;stroke-dasharray:none;stroke-dashoffset:0;stroke-opacity:1"
         id="circle4165"
         cx="369.39093"
         cy="699.13367"
         r="32" />
      <circle
         inkscape:export-ydpi="90"
         inkscape:export-xdpi="90"
         r="32"
         cy="713.27582"
         cx="431.01025"
         id="circle4167"
         style="opacity:1;fill:#a3e01f;fill-opacity:1;stroke:none;stroke-width:9.64400005;stroke-linecap:round;stroke-linejoin:round;stroke-miterlimit:4;stroke-dasharray:none;stroke-dashoffset:0;stroke-opacity:1" />
      <circle
         inkscape:export-ydpi="90"
         inkscape:export-xdpi="90"
         style="opacity:1;fill:#bbef4b;fill-opacity:1;stroke:none;stroke-width:9.64400005;stroke-linecap:round;stroke-linejoin:round;stroke-miterlimit:4;stroke-dasharray:none;stroke-dashoffset:0;stroke-opacity:1"
         id="circle4173"
         cx="345.14728"
         cy="575.89508"
         r="32" />
      <circle
         inkscape:export-ydpi="90"
         inkscape:export-xdpi="90"
         r="32"
         cy="677.92047"
         cx="479.49756"
         id="circle4175"
         style="opacity:1;fill:#d2ff71;fill-opacity:1;stroke:none;stroke-width:9.64400005;stroke-linecap:round;stroke-linejoin:round;stroke-miterlimit:4;stroke-dasharray:none;stroke-dashoffset:0;stroke-opacity:1" />
      <circle
         inkscape:export-ydpi="90"
         inkscape:export-xdpi="90"
         style="opacity:1;fill:#95db00;fill-opacity:1;stroke:none;stroke-width:9.64400005;stroke-linecap:round;stroke-linejoin:round;stroke-miterlimit:4;stroke-dasharray:none;stroke-dashoffset:0;stroke-opacity:1"
         id="circle4177"
         cx="404.74628"
         cy="588.01697"
         r="32" />
      <circle
         inkscape:export-ydpi="90"
         inkscape:export-xdpi="90"
         r="32"
         cy="641.55493"
         cx="380.50262"
         id="circle4171"
         style="opacity:1;fill:#d2ff71;fill-opacity:1;stroke:none;stroke-width:9.64400005;stroke-linecap:round;stroke-linejoin:round;stroke-miterlimit:4;stroke-dasharray:none;stroke-dashoffset:0;stroke-opacity:1" />
      <circle
         inkscape:export-ydpi="90"
         inkscape:export-xdpi="90"
         style="opacity:1;fill:#aeff00;fill-opacity:1;stroke:none;stroke-width:9.64400005;stroke-linecap:round;stroke-linejoin:round;stroke-miterlimit:4;stroke-dasharray:none;stroke-dashoffset:0;stroke-opacity:1"
         id="circle4169"
         cx="428.98996"
         cy="662.76819"
         r="32" />
      <circle
         inkscape:export-ydpi="90"
         inkscape:export-xdpi="90"
         style="opacity:1;fill:#adff00;fill-opacity:1;stroke:none;stroke-width:9.64400005;stroke-linecap:round;stroke-linejoin:round;stroke-miterlimit:4;stroke-dasharray:none;stroke-dashoffset:0;stroke-opacity:1"
         id="circle4227"
         cx="457.27274"
         cy="584.11261"
         r="32" />
    </g>
    <g
       id="g4306"
       transform="translate(644.47732,9.0913729)"
       inkscape:export-filename="E:\ARID6405\Documents\One drive\OneDrive\projets\wine_app\app\static\red_wine.png"
       inkscape:export-xdpi="89.999992"
       inkscape:export-ydpi="89.999992">
      <rect
         style="opacity:1;fill:#ffffff;fill-opacity:1;stroke:none;stroke-width:9.64400005;stroke-linecap:round;stroke-linejoin:round;stroke-miterlimit:4;stroke-dasharray:none;stroke-dashoffset:0;stroke-opacity:1"
         id="rect4308"
         width="512"
         height="512"
         x="181.82745"
         y="373.5397"
         ry="0.134593"
         inkscape:export-xdpi="90"
         inkscape:export-ydpi="90" />
      <g
         id="g4310"
         transform="matrix(-0.8112173,-0.52382265,-0.50653276,0.78444134,1088.6911,286.6675)"
         inkscape:export-xdpi="90"
         inkscape:export-ydpi="90">
        <path
           inkscape:export-ydpi="90"
           inkscape:export-xdpi="90"
           sodipodi:nodetypes="cccccccccscssscsssscscsssssssccscsssssssssscssssssssssssscccccscccccsssssssscccssccc"
           inkscape:connector-curvature="0"
           id="path4312"
           d="m 392.7873,444.72413 c 2.01106,3.04925 4.33538,5.04286 6.09603,5.22867 4.01983,-0.39002 8.29353,0.28957 13.40015,-1.33322 -1.37905,5.77593 -2.17496,12.53455 3.15931,15.72015 2.30296,1.31829 8.82881,2.39869 11.34542,1.87831 -3.06937,6.25415 -3.41039,14.51213 -3.45763,18.97093 -0.0247,3.23296 0.59231,4.28636 3.48079,5.94309 2.27775,2.17478 4.13528,1.37934 8.11251,1.48237 0.30077,3.05225 -11.00226,11.42723 -12.69465,12.84868 -7.96841,6.67982 -9.64891,8.58279 -9.92457,11.23849 -0.18336,1.76646 1.89929,4.38367 4.13695,5.1988 0.70012,0.25503 1.25584,0.62857 1.23492,0.83008 -0.0744,0.7168 -5.72602,4.79264 -8.88755,6.40952 -3.60466,1.84352 -6.62932,2.68867 -10.20368,2.85113 -2.40059,0.1091 -4.22532,0.65224 -3.78077,1.12533 0.1272,0.13538 1.83401,1.35191 3.79292,2.7034 5.08012,3.5049 8.81161,6.73678 10.81306,9.36532 1.7295,2.27138 4.16386,6.55922 4.09585,7.21438 -0.0197,0.18989 -0.99335,0.39811 -2.16365,0.46269 -3.21024,0.17717 -4.84918,1.47797 -5.0446,4.00379 -0.20585,2.6602 1.15116,6.18315 5.47044,14.20218 3.74612,6.95493 6.12211,12.62623 5.95828,14.22195 -0.0928,0.90369 -0.4738,0.95443 -3.55283,0.4732 -6.66269,-1.04135 -9.62966,1.45455 -9.66077,8.12689 -0.0338,7.24296 -0.46966,13.37506 -0.99427,13.9871 -0.41912,0.48898 -1.39521,0.22872 -4.40686,-1.17485 -2.12767,-0.99162 -5.24499,-1.98677 -6.92736,-2.21147 -4.82688,-0.64463 -6.61049,1.21416 -8.16457,8.50863 -0.47805,2.24373 -1.10398,3.70265 -1.84767,4.30646 -0.61859,0.50224 -0.94304,0.93578 -0.72099,0.96343 0.45472,0.0562 -1.1482,0.9416 -1.63703,0.90386 -0.17258,-0.0139 -1.28384,-1.12702 -2.46932,-2.47489 -3.20463,-3.64356 -6.41288,-6.07241 -8.27303,-6.26318 -1.76262,-0.18096 -4.72793,0.99488 -7.14466,2.83271 -1.98634,1.51053 -2.68323,0.84256 -3.28639,-3.14993 -0.27196,-1.79986 -0.94014,-3.86465 -1.48494,-4.58838 -1.3222,-1.7565 -4.49265,-3.29741 -8.64717,-4.20272 -4.04242,-0.88087 -4.84986,-1.85499 -3.5544,-4.28815 0.45775,-0.85976 1.18701,-2.22713 1.62056,-3.03859 0.72296,-1.3531 0.62489,-1.7687 -1.1832,-5.01426 -2.33393,-4.18948 -5.33026,-6.41679 -8.23887,-6.1244 -2.21102,0.22226 -5.09103,1.65445 -9.06294,4.50682 -3.4543,2.48066 -6.69577,4.21421 -8.51035,4.55137 -1.01135,0.18797 -1.332,-0.0668 -1.70017,-1.35026 -3.57762,-12.4728 -5.83742,-14.16096 -14.67698,-10.96427 -5.21948,1.88755 -5.90595,1.93819 -7.50261,0.55341 -1.00358,-0.87037 -1.06457,-1.42042 -0.62699,-5.65382 0.72848,-7.04705 -0.8731,-9.46378 -7.31459,-11.0377 -2.96292,-0.72398 -2.94614,-1.43903 0.0973,-4.14166 3.96157,-3.518 4.19832,-5.68789 1.29483,-11.86679 -0.97884,-2.08306 -1.75379,-4.03718 -1.7221,-4.3425 0.1042,-1.00387 3.11661,-1.74364 6.8785,-1.68915 2.03432,0.0295 7.42475,-0.0212 8.26841,-0.33088 1.35646,-0.49788 1.54943,-0.84 1.66798,-2.95733 0.17125,-3.05887 -3.96953,-5.11707 -7.12004,-7.12571 -2.31376,-1.47515 -3.33704,-1.71799 -12.74358,-3.02424 -10.04858,-1.39541 -21.13944,1.07435 -20.46065,-0.14481 1.72418,-3.09675 10.54125,-11.49958 10.41641,-13.01823 -1.03951,-9.26687 -19.63331,-9.27053 -23.89752,-12.41856 10.15411,-4.08766 10.44259,-6.4847 2.21537,-19.12598 13.84113,1.15106 16.13973,-1.0768 14.65881,-11.84177 4.22767,2.99418 22.91892,7.69589 26.55979,6.13459 2.81808,-1.28106 6.91943,-5.41329 7.10007,-7.15352 0.0633,-0.6103 0.39581,-1.24523 0.73881,-1.41099 4.36939,1.73421 5.42176,16.41259 10.14525,17.326 1.3163,0.13664 1.48296,-0.0401 1.66178,-1.76293 1.016,-8.34998 -8.91459,-21.3545 -14.0479,-25.905 5.93607,-3.02416 7.88356,-5.57273 4.76853,-11.96889 -2.45415,-4.90573 -1.9422,-5.45978 2.77959,-3.0082 5.49835,2.85479 7.98177,1.89658 8.51987,-3.28733 0.19034,-1.83376 0.6162,-3.07193 1.22717,-3.56799 1.96456,-1.59507 3.56434,-0.60513 8.41693,5.2084 4.67569,5.60161 7.02458,7.53298 9.4702,7.78684 1.64136,0.17037 2.38176,-0.1972 4.99603,-2.48025 1.68801,-1.47415 3.47958,-2.63766 3.98125,-2.58558 1.38473,0.14374 5.54944,5.62384 9.57976,12.60542 3.78941,6.56432 5.53256,19.97978 12.62351,21.84573 2.08201,0.19832 5.82773,-1.21856 7.3373,-2.77552 3.65841,-5.99868 -2.40041,-21.43903 -1.98952,-27.99794 l 5.62688,0.7316 c 7.7103,1.00248 8.04147,2.44472 10.44048,-3.78149 0.75436,-1.9578 2.38469,-3.28538 2.86665,-3.32329 0.49997,-0.0394 1.64786,1.10088 2.6728,2.65494 z"
           style="fill:#005a01;fill-opacity:1" />
        <path
           style="fill:none;fill-rule:evenodd;stroke:#36c936;stroke-width:2.70000005;stroke-linecap:round;stroke-linejoin:round;stroke-miterlimit:4;stroke-dasharray:none;stroke-opacity:1"
           d="m 296.99306,503.23604 c 25.32841,2.25914 52.82622,1.01616 102.79849,32.89473"
           id="path4314"
           inkscape:connector-curvature="0"
           sodipodi:nodetypes="cc"
           inkscape:export-xdpi="90"
           inkscape:export-ydpi="90" />
      </g>
      <g
         id="g4316"
         inkscape:export-xdpi="90"
         inkscape:export-ydpi="90">
        <path
           style="fill:#007d01"
           d="m 398.06013,448.24514 c 2.01106,3.04925 4.33538,5.04286 6.09603,5.22867 4.01983,-0.39002 8.29353,0.28957 13.40015,-1.33322 -1.37905,5.77593 -2.17496,12.53455 3.15931,15.72015 2.30296,1.31829 8.82881,2.39869 11.34542,1.87831 -3.06937,6.25415 -3.41039,14.51213 -3.45763,18.97093 -0.0247,3.23296 0.59231,4.28636 3.48079,5.94309 2.27775,2.17478 4.13528,1.37934 8.11251,1.48237 0.30077,3.05225 -11.00226,11.42723 -12.69465,12.84868 -7.96841,6.67982 -9.64891,8.58279 -9.92457,11.23849 -0.18336,1.76646 1.89929,4.38367 4.13695,5.1988 0.70012,0.25503 1.25584,0.62857 1.23492,0.83008 -0.0744,0.7168 -5.72602,4.79264 -8.88755,6.40952 -3.60466,1.84352 -6.62932,2.68867 -10.20368,2.85113 -2.40059,0.1091 -4.22532,0.65224 -3.78077,1.12533 0.1272,0.13538 1.83401,1.35191 3.79292,2.7034 5.08012,3.5049 8.81161,6.73678 10.81306,9.36532 1.7295,2.27138 4.16386,6.55922 4.09585,7.21438 -0.0197,0.18989 -0.99335,0.39811 -2.16365,0.46269 -3.21024,0.17717 -4.84918,1.47797 -5.0446,4.00379 -0.20585,2.6602 1.15116,6.18315 5.47044,14.20218 3.74612,6.95493 6.12211,12.62623 5.95828,14.22195 -0.0928,0.90369 -0.4738,0.95443 -3.55283,0.4732 -6.66269,-1.04135 -9.62966,1.45455 -9.66077,8.12689 -0.0338,7.24296 -0.46966,13.37506 -0.99427,13.9871 -0.41912,0.48898 -1.39521,0.22872 -4.40686,-1.17485 -2.12767,-0.99162 -5.24499,-1.98677 -6.92736,-2.21147 -4.82688,-0.64463 -6.61049,1.21416 -8.16457,8.50863 -0.47805,2.24373 -1.10398,3.70265 -1.84767,4.30646 -0.61859,0.50224 -0.94304,0.93578 -0.72099,0.96343 0.45472,0.0562 -1.1482,0.9416 -1.63703,0.90386 -0.17258,-0.0139 -1.28384,-1.12702 -2.46932,-2.47489 -3.20463,-3.64356 -6.41288,-6.07241 -8.27303,-6.26318 -1.76262,-0.18096 -4.72793,0.99488 -7.14466,2.83271 -1.98634,1.51053 -2.68323,0.84256 -3.28639,-3.14993 -0.27196,-1.79986 -0.94014,-3.86465 -1.48494,-4.58838 -1.3222,-1.7565 -4.49265,-3.29741 -8.64717,-4.20272 -4.04242,-0.88087 -4.84986,-1.85499 -3.5544,-4.28815 0.45775,-0.85976 1.18701,-2.22713 1.62056,-3.03859 0.72296,-1.3531 0.62489,-1.7687 -1.1832,-5.01426 -2.33393,-4.18948 -5.33026,-6.41679 -8.23887,-6.1244 -2.21102,0.22226 -5.09103,1.65445 -9.06294,4.50682 -3.4543,2.48066 -6.69577,4.21421 -8.51035,4.55137 -1.01135,0.18797 -1.332,-0.0668 -1.70017,-1.35026 -3.57762,-12.4728 -5.83742,-14.16096 -14.67698,-10.96427 -5.21948,1.88755 -5.90595,1.93819 -7.50261,0.55341 -1.00358,-0.87037 -1.06457,-1.42042 -0.62699,-5.65382 0.72848,-7.04705 -0.8731,-9.46378 -7.31459,-11.0377 -2.96292,-0.72398 -2.94614,-1.43903 0.0973,-4.14166 3.96157,-3.518 4.19832,-5.68789 1.29483,-11.86679 -0.97884,-2.08306 -1.75379,-4.03718 -1.7221,-4.3425 0.1042,-1.00387 3.11661,-1.74364 6.8785,-1.68915 2.03432,0.0295 7.42475,-0.0212 8.26841,-0.33088 1.35646,-0.49788 1.54943,-0.84 1.66798,-2.95733 0.17125,-3.05887 -3.96953,-5.11707 -7.12004,-7.12571 -2.31376,-1.47515 -3.33704,-1.71799 -12.74358,-3.02424 -10.04858,-1.39541 -21.13944,1.07435 -20.46065,-0.14481 1.72418,-3.09675 10.54125,-11.49958 10.41641,-13.01823 -1.03951,-9.26687 -19.63331,-9.27053 -23.89752,-12.41856 10.15411,-4.08766 10.44259,-6.4847 2.21537,-19.12598 13.84113,1.15106 16.13973,-1.0768 14.65881,-11.84177 4.22767,2.99418 22.91892,7.69589 26.55979,6.13459 2.81808,-1.28106 6.91943,-5.41329 7.10007,-7.15352 0.0633,-0.6103 0.39581,-1.24523 0.73881,-1.41099 4.36939,1.73421 5.42176,16.41259 10.14525,17.326 1.3163,0.13664 1.48296,-0.0401 1.66178,-1.76293 1.016,-8.34998 -8.91459,-21.3545 -14.0479,-25.905 5.93607,-3.02416 7.88356,-5.57273 4.76853,-11.96889 -2.45415,-4.90573 -1.9422,-5.45978 2.77959,-3.0082 5.49835,2.85479 7.98177,1.89658 8.51987,-3.28733 0.19034,-1.83376 0.6162,-3.07193 1.22717,-3.56799 1.96456,-1.59507 3.56434,-0.60513 8.41693,5.2084 4.67569,5.60161 7.02458,7.53298 9.4702,7.78684 1.64136,0.17037 2.38176,-0.1972 4.99603,-2.48025 1.68801,-1.47415 3.47958,-2.63766 3.98125,-2.58558 1.38473,0.14374 5.54944,5.62384 9.57976,12.60542 3.78941,6.56432 5.53256,19.97978 12.62351,21.84573 2.08201,0.19832 5.82773,-1.21856 7.3373,-2.77552 3.65841,-5.99868 -2.40041,-21.43903 -1.98952,-27.99794 l 5.62688,0.7316 c 7.7103,1.00248 8.04147,2.44472 10.44048,-3.78149 0.75436,-1.9578 2.38469,-3.28538 2.86665,-3.32329 0.49997,-0.0394 1.64786,1.10088 2.6728,2.65494 z"
           id="path4318"
           inkscape:connector-curvature="0"
           sodipodi:nodetypes="cccccccccscssscsssscscsssssssccscsssssssssscssssssssssssscccccscccccsssssssscccssccc"
           inkscape:export-xdpi="90"
           inkscape:export-ydpi="90" />
        <path
           inkscape:export-ydpi="90"
           inkscape:export-xdpi="90"
           sodipodi:nodetypes="cc"
           inkscape:connector-curvature="0"
           id="path4320"
           d="m 296.99306,503.23604 c 25.32841,2.25914 52.82622,1.01616 102.79849,32.89473"
           style="fill:none;fill-rule:evenodd;stroke:#36c936;stroke-width:2.70000005;stroke-linecap:round;stroke-linejoin:round;stroke-miterlimit:4;stroke-dasharray:none;stroke-opacity:1" />
      </g>
      <circle
         style="opacity:1;fill:#7f1b30;fill-opacity:1;stroke:none;stroke-width:9.64400005;stroke-linecap:round;stroke-linejoin:round;stroke-miterlimit:4;stroke-dasharray:none;stroke-dashoffset:0;stroke-opacity:1"
         id="circle4322"
         cx="290.14728"
         cy="803.7522"
         r="32"
         inkscape:export-xdpi="90"
         inkscape:export-ydpi="90" />
      <path
         inkscape:export-ydpi="90"
         inkscape:export-xdpi="90"
         sodipodi:nodetypes="cszc"
         inkscape:connector-curvature="0"
         id="path4324"
         d="m 558.24809,439.91897 c -25.15616,33.98666 -34.35624,27.59055 -72.8922,48.45281 -37.44925,20.27395 -63.75917,46.82456 -70.46365,61.10151 -6.70446,14.27696 -27.60246,82.38834 -27.60246,82.38834"
         style="fill:none;fill-rule:evenodd;stroke:#9c6a1a;stroke-width:13.19999981;stroke-linecap:butt;stroke-linejoin:round;stroke-miterlimit:4;stroke-dasharray:none;stroke-opacity:1" />
      <circle
         style="opacity:1;fill:#b22643;fill-opacity:1;stroke:none;stroke-width:9.64400005;stroke-linecap:round;stroke-linejoin:round;stroke-miterlimit:4;stroke-dasharray:none;stroke-dashoffset:0;stroke-opacity:1"
         id="circle4326"
         cx="279.48737"
         cy="771.86469"
         r="32"
         inkscape:export-xdpi="90"
         inkscape:export-ydpi="90" />
      <circle
         r="32"
         cy="780.95605"
         cx="332.01529"
         id="circle4328"
         style="opacity:1;fill:#d43355;fill-opacity:1;stroke:none;stroke-width:9.64400005;stroke-linecap:round;stroke-linejoin:round;stroke-miterlimit:4;stroke-dasharray:none;stroke-dashoffset:0;stroke-opacity:1"
         inkscape:export-xdpi="90"
         inkscape:export-ydpi="90" />
      <circle
         style="opacity:1;fill:#7f1b30;fill-opacity:1;stroke:none;stroke-width:9.64400005;stroke-linecap:round;stroke-linejoin:round;stroke-miterlimit:4;stroke-dasharray:none;stroke-dashoffset:0;stroke-opacity:1"
         id="circle4330"
         cx="318.88333"
         cy="745.60071"
         r="32"
         inkscape:export-xdpi="90"
         inkscape:export-ydpi="90" />
      <circle
         r="32"
         cy="681.96112"
         cx="329.995"
         id="circle4332"
         style="opacity:1;fill:#a5233e;fill-opacity:1;stroke:none;stroke-width:9.64400005;stroke-linecap:round;stroke-linejoin:round;stroke-miterlimit:4;stroke-dasharray:none;stroke-dashoffset:0;stroke-opacity:1"
         inkscape:export-xdpi="90"
         inkscape:export-ydpi="90" />
      <circle
         style="opacity:1;fill:#a5233e;fill-opacity:1;stroke:none;stroke-width:9.64400005;stroke-linecap:round;stroke-linejoin:round;stroke-miterlimit:4;stroke-dasharray:none;stroke-dashoffset:0;stroke-opacity:1"
         id="circle4334"
         cx="286.55844"
         cy="711.25549"
         r="32"
         inkscape:export-xdpi="90"
         inkscape:export-ydpi="90" />
      <circle
         r="32"
         cy="629.43317"
         cx="316.86301"
         id="circle4336"
         style="opacity:1;fill:#8c1e35;fill-opacity:1;stroke:none;stroke-width:9.64400005;stroke-linecap:round;stroke-linejoin:round;stroke-miterlimit:4;stroke-dasharray:none;stroke-dashoffset:0;stroke-opacity:1"
         inkscape:export-xdpi="90"
         inkscape:export-ydpi="90" />
      <circle
         style="opacity:1;fill:#ca3554;fill-opacity:1;stroke:none;stroke-width:9.64400005;stroke-linecap:round;stroke-linejoin:round;stroke-miterlimit:4;stroke-dasharray:none;stroke-dashoffset:0;stroke-opacity:1"
         id="circle4338"
         cx="329.995"
         cy="681.96112"
         r="32"
         inkscape:export-xdpi="90"
         inkscape:export-ydpi="90" />
      <circle
         style="opacity:1;fill:#7f1b30;fill-opacity:1;stroke:none;stroke-width:9.64400005;stroke-linecap:round;stroke-linejoin:round;stroke-miterlimit:4;stroke-dasharray:none;stroke-dashoffset:0;stroke-opacity:1"
         id="circle4340"
         cx="507.96237"
         cy="628.41937"
         r="32"
         inkscape:export-xdpi="90"
         inkscape:export-ydpi="90" />
      <circle
         r="32"
         cy="622.48474"
         cx="451.31485"
         id="circle4342"
         style="opacity:1;fill:#a5233e;fill-opacity:1;stroke:none;stroke-width:9.64400005;stroke-linecap:round;stroke-linejoin:round;stroke-miterlimit:4;stroke-dasharray:none;stroke-dashoffset:0;stroke-opacity:1"
         inkscape:export-xdpi="90"
         inkscape:export-ydpi="90" />
      <circle
         style="opacity:1;fill:#bf3451;fill-opacity:1;stroke:none;stroke-width:9.64400005;stroke-linecap:round;stroke-linejoin:round;stroke-miterlimit:4;stroke-dasharray:none;stroke-dashoffset:0;stroke-opacity:1"
         id="circle4344"
         cx="386.56354"
         cy="751.66162"
         r="32"
         inkscape:export-xdpi="90"
         inkscape:export-ydpi="90" />
      <circle
         r="32"
         cy="699.13367"
         cx="369.39093"
         id="circle4346"
         style="opacity:1;fill:#a5233e;fill-opacity:1;stroke:none;stroke-width:9.64400005;stroke-linecap:round;stroke-linejoin:round;stroke-miterlimit:4;stroke-dasharray:none;stroke-dashoffset:0;stroke-opacity:1"
         inkscape:export-xdpi="90"
         inkscape:export-ydpi="90" />
      <circle
         style="opacity:1;fill:#a5233e;fill-opacity:1;stroke:none;stroke-width:9.64400005;stroke-linecap:round;stroke-linejoin:round;stroke-miterlimit:4;stroke-dasharray:none;stroke-dashoffset:0;stroke-opacity:1"
         id="circle4348"
         cx="431.01025"
         cy="713.27582"
         r="32"
         inkscape:export-xdpi="90"
         inkscape:export-ydpi="90" />
      <circle
         r="32"
         cy="575.89508"
         cx="345.14728"
         id="circle4350"
         style="opacity:1;fill:#b72745;fill-opacity:1;stroke:none;stroke-width:9.64400005;stroke-linecap:round;stroke-linejoin:round;stroke-miterlimit:4;stroke-dasharray:none;stroke-dashoffset:0;stroke-opacity:1"
         inkscape:export-xdpi="90"
         inkscape:export-ydpi="90" />
      <circle
         style="opacity:1;fill:#d43355;fill-opacity:1;stroke:none;stroke-width:9.64400005;stroke-linecap:round;stroke-linejoin:round;stroke-miterlimit:4;stroke-dasharray:none;stroke-dashoffset:0;stroke-opacity:1"
         id="circle4352"
         cx="479.49756"
         cy="677.92047"
         r="32"
         inkscape:export-xdpi="90"
         inkscape:export-ydpi="90" />
      <circle
         r="32"
         cy="588.01697"
         cx="404.74628"
         id="circle4354"
         style="opacity:1;fill:#71182b;fill-opacity:1;stroke:none;stroke-width:9.64400005;stroke-linecap:round;stroke-linejoin:round;stroke-miterlimit:4;stroke-dasharray:none;stroke-dashoffset:0;stroke-opacity:1"
         inkscape:export-xdpi="90"
         inkscape:export-ydpi="90" />
      <circle
         style="opacity:1;fill:#d43355;fill-opacity:1;stroke:none;stroke-width:9.64400005;stroke-linecap:round;stroke-linejoin:round;stroke-miterlimit:4;stroke-dasharray:none;stroke-dashoffset:0;stroke-opacity:1"
         id="circle4356"
         cx="380.50262"
         cy="641.55493"
         r="32"
         inkscape:export-xdpi="90"
         inkscape:export-ydpi="90" />
      <circle
         r="32"
         cy="662.76819"
         cx="428.98996"
         id="circle4358"
         style="opacity:1;fill:#d94d6a;fill-opacity:1;stroke:none;stroke-width:9.64400005;stroke-linecap:round;stroke-linejoin:round;stroke-miterlimit:4;stroke-dasharray:none;stroke-dashoffset:0;stroke-opacity:1"
         inkscape:export-xdpi="90"
         inkscape:export-ydpi="90" />
      <circle
         r="32"
         cy="584.11261"
         cx="457.27274"
         id="circle4360"
         style="opacity:1;fill:#da516d;fill-opacity:1;stroke:none;stroke-width:9.64400005;stroke-linecap:round;stroke-linejoin:round;stroke-miterlimit:4;stroke-dasharray:none;stroke-dashoffset:0;stroke-opacity:1"
         inkscape:export-xdpi="90"
         inkscape:export-ydpi="90" />
    </g>
    <g
       id="g4394"
       transform="translate(1369.7669,12.121831)"
       inkscape:export-filename="E:\ARID6405\Documents\One drive\OneDrive\projets\wine_app\app\static\white_wine.png"
       inkscape:export-xdpi="89.999992"
       inkscape:export-ydpi="89.999992">
      <rect
         style="opacity:1;fill:#ffffff;fill-opacity:1;stroke:none;stroke-width:9.64400005;stroke-linecap:round;stroke-linejoin:round;stroke-miterlimit:4;stroke-dasharray:none;stroke-dashoffset:0;stroke-opacity:1"
         id="rect4396"
         width="512"
         height="512"
         x="181.82745"
         y="373.5397"
         ry="0.134593"
         inkscape:export-xdpi="90"
         inkscape:export-ydpi="90" />
      <g
         id="g4398"
         transform="matrix(-0.8112173,-0.52382265,-0.50653276,0.78444134,1088.6911,286.6675)"
         inkscape:export-xdpi="90"
         inkscape:export-ydpi="90">
        <path
           inkscape:export-ydpi="90"
           inkscape:export-xdpi="90"
           sodipodi:nodetypes="cccccccccscssscsssscscsssssssccscsssssssssscssssssssssssscccccscccccsssssssscccssccc"
           inkscape:connector-curvature="0"
           id="path4400"
           d="m 392.7873,444.72413 c 2.01106,3.04925 4.33538,5.04286 6.09603,5.22867 4.01983,-0.39002 8.29353,0.28957 13.40015,-1.33322 -1.37905,5.77593 -2.17496,12.53455 3.15931,15.72015 2.30296,1.31829 8.82881,2.39869 11.34542,1.87831 -3.06937,6.25415 -3.41039,14.51213 -3.45763,18.97093 -0.0247,3.23296 0.59231,4.28636 3.48079,5.94309 2.27775,2.17478 4.13528,1.37934 8.11251,1.48237 0.30077,3.05225 -11.00226,11.42723 -12.69465,12.84868 -7.96841,6.67982 -9.64891,8.58279 -9.92457,11.23849 -0.18336,1.76646 1.89929,4.38367 4.13695,5.1988 0.70012,0.25503 1.25584,0.62857 1.23492,0.83008 -0.0744,0.7168 -5.72602,4.79264 -8.88755,6.40952 -3.60466,1.84352 -6.62932,2.68867 -10.20368,2.85113 -2.40059,0.1091 -4.22532,0.65224 -3.78077,1.12533 0.1272,0.13538 1.83401,1.35191 3.79292,2.7034 5.08012,3.5049 8.81161,6.73678 10.81306,9.36532 1.7295,2.27138 4.16386,6.55922 4.09585,7.21438 -0.0197,0.18989 -0.99335,0.39811 -2.16365,0.46269 -3.21024,0.17717 -4.84918,1.47797 -5.0446,4.00379 -0.20585,2.6602 1.15116,6.18315 5.47044,14.20218 3.74612,6.95493 6.12211,12.62623 5.95828,14.22195 -0.0928,0.90369 -0.4738,0.95443 -3.55283,0.4732 -6.66269,-1.04135 -9.62966,1.45455 -9.66077,8.12689 -0.0338,7.24296 -0.46966,13.37506 -0.99427,13.9871 -0.41912,0.48898 -1.39521,0.22872 -4.40686,-1.17485 -2.12767,-0.99162 -5.24499,-1.98677 -6.92736,-2.21147 -4.82688,-0.64463 -6.61049,1.21416 -8.16457,8.50863 -0.47805,2.24373 -1.10398,3.70265 -1.84767,4.30646 -0.61859,0.50224 -0.94304,0.93578 -0.72099,0.96343 0.45472,0.0562 -1.1482,0.9416 -1.63703,0.90386 -0.17258,-0.0139 -1.28384,-1.12702 -2.46932,-2.47489 -3.20463,-3.64356 -6.41288,-6.07241 -8.27303,-6.26318 -1.76262,-0.18096 -4.72793,0.99488 -7.14466,2.83271 -1.98634,1.51053 -2.68323,0.84256 -3.28639,-3.14993 -0.27196,-1.79986 -0.94014,-3.86465 -1.48494,-4.58838 -1.3222,-1.7565 -4.49265,-3.29741 -8.64717,-4.20272 -4.04242,-0.88087 -4.84986,-1.85499 -3.5544,-4.28815 0.45775,-0.85976 1.18701,-2.22713 1.62056,-3.03859 0.72296,-1.3531 0.62489,-1.7687 -1.1832,-5.01426 -2.33393,-4.18948 -5.33026,-6.41679 -8.23887,-6.1244 -2.21102,0.22226 -5.09103,1.65445 -9.06294,4.50682 -3.4543,2.48066 -6.69577,4.21421 -8.51035,4.55137 -1.01135,0.18797 -1.332,-0.0668 -1.70017,-1.35026 -3.57762,-12.4728 -5.83742,-14.16096 -14.67698,-10.96427 -5.21948,1.88755 -5.90595,1.93819 -7.50261,0.55341 -1.00358,-0.87037 -1.06457,-1.42042 -0.62699,-5.65382 0.72848,-7.04705 -0.8731,-9.46378 -7.31459,-11.0377 -2.96292,-0.72398 -2.94614,-1.43903 0.0973,-4.14166 3.96157,-3.518 4.19832,-5.68789 1.29483,-11.86679 -0.97884,-2.08306 -1.75379,-4.03718 -1.7221,-4.3425 0.1042,-1.00387 3.11661,-1.74364 6.8785,-1.68915 2.03432,0.0295 7.42475,-0.0212 8.26841,-0.33088 1.35646,-0.49788 1.54943,-0.84 1.66798,-2.95733 0.17125,-3.05887 -3.96953,-5.11707 -7.12004,-7.12571 -2.31376,-1.47515 -3.33704,-1.71799 -12.74358,-3.02424 -10.04858,-1.39541 -21.13944,1.07435 -20.46065,-0.14481 1.72418,-3.09675 10.54125,-11.49958 10.41641,-13.01823 -1.03951,-9.26687 -19.63331,-9.27053 -23.89752,-12.41856 10.15411,-4.08766 10.44259,-6.4847 2.21537,-19.12598 13.84113,1.15106 16.13973,-1.0768 14.65881,-11.84177 4.22767,2.99418 22.91892,7.69589 26.55979,6.13459 2.81808,-1.28106 6.91943,-5.41329 7.10007,-7.15352 0.0633,-0.6103 0.39581,-1.24523 0.73881,-1.41099 4.36939,1.73421 5.42176,16.41259 10.14525,17.326 1.3163,0.13664 1.48296,-0.0401 1.66178,-1.76293 1.016,-8.34998 -8.91459,-21.3545 -14.0479,-25.905 5.93607,-3.02416 7.88356,-5.57273 4.76853,-11.96889 -2.45415,-4.90573 -1.9422,-5.45978 2.77959,-3.0082 5.49835,2.85479 7.98177,1.89658 8.51987,-3.28733 0.19034,-1.83376 0.6162,-3.07193 1.22717,-3.56799 1.96456,-1.59507 3.56434,-0.60513 8.41693,5.2084 4.67569,5.60161 7.02458,7.53298 9.4702,7.78684 1.64136,0.17037 2.38176,-0.1972 4.99603,-2.48025 1.68801,-1.47415 3.47958,-2.63766 3.98125,-2.58558 1.38473,0.14374 5.54944,5.62384 9.57976,12.60542 3.78941,6.56432 5.53256,19.97978 12.62351,21.84573 2.08201,0.19832 5.82773,-1.21856 7.3373,-2.77552 3.65841,-5.99868 -2.40041,-21.43903 -1.98952,-27.99794 l 5.62688,0.7316 c 7.7103,1.00248 8.04147,2.44472 10.44048,-3.78149 0.75436,-1.9578 2.38469,-3.28538 2.86665,-3.32329 0.49997,-0.0394 1.64786,1.10088 2.6728,2.65494 z"
           style="fill:#005a01;fill-opacity:1" />
        <path
           style="fill:none;fill-rule:evenodd;stroke:#36c936;stroke-width:2.70000005;stroke-linecap:round;stroke-linejoin:round;stroke-miterlimit:4;stroke-dasharray:none;stroke-opacity:1"
           d="m 296.99306,503.23604 c 25.32841,2.25914 52.82622,1.01616 102.79849,32.89473"
           id="path4402"
           inkscape:connector-curvature="0"
           sodipodi:nodetypes="cc"
           inkscape:export-xdpi="90"
           inkscape:export-ydpi="90" />
      </g>
      <g
         id="g4404"
         inkscape:export-xdpi="90"
         inkscape:export-ydpi="90">
        <path
           style="fill:#007d01"
           d="m 398.06013,448.24514 c 2.01106,3.04925 4.33538,5.04286 6.09603,5.22867 4.01983,-0.39002 8.29353,0.28957 13.40015,-1.33322 -1.37905,5.77593 -2.17496,12.53455 3.15931,15.72015 2.30296,1.31829 8.82881,2.39869 11.34542,1.87831 -3.06937,6.25415 -3.41039,14.51213 -3.45763,18.97093 -0.0247,3.23296 0.59231,4.28636 3.48079,5.94309 2.27775,2.17478 4.13528,1.37934 8.11251,1.48237 0.30077,3.05225 -11.00226,11.42723 -12.69465,12.84868 -7.96841,6.67982 -9.64891,8.58279 -9.92457,11.23849 -0.18336,1.76646 1.89929,4.38367 4.13695,5.1988 0.70012,0.25503 1.25584,0.62857 1.23492,0.83008 -0.0744,0.7168 -5.72602,4.79264 -8.88755,6.40952 -3.60466,1.84352 -6.62932,2.68867 -10.20368,2.85113 -2.40059,0.1091 -4.22532,0.65224 -3.78077,1.12533 0.1272,0.13538 1.83401,1.35191 3.79292,2.7034 5.08012,3.5049 8.81161,6.73678 10.81306,9.36532 1.7295,2.27138 4.16386,6.55922 4.09585,7.21438 -0.0197,0.18989 -0.99335,0.39811 -2.16365,0.46269 -3.21024,0.17717 -4.84918,1.47797 -5.0446,4.00379 -0.20585,2.6602 1.15116,6.18315 5.47044,14.20218 3.74612,6.95493 6.12211,12.62623 5.95828,14.22195 -0.0928,0.90369 -0.4738,0.95443 -3.55283,0.4732 -6.66269,-1.04135 -9.62966,1.45455 -9.66077,8.12689 -0.0338,7.24296 -0.46966,13.37506 -0.99427,13.9871 -0.41912,0.48898 -1.39521,0.22872 -4.40686,-1.17485 -2.12767,-0.99162 -5.24499,-1.98677 -6.92736,-2.21147 -4.82688,-0.64463 -6.61049,1.21416 -8.16457,8.50863 -0.47805,2.24373 -1.10398,3.70265 -1.84767,4.30646 -0.61859,0.50224 -0.94304,0.93578 -0.72099,0.96343 0.45472,0.0562 -1.1482,0.9416 -1.63703,0.90386 -0.17258,-0.0139 -1.28384,-1.12702 -2.46932,-2.47489 -3.20463,-3.64356 -6.41288,-6.07241 -8.27303,-6.26318 -1.76262,-0.18096 -4.72793,0.99488 -7.14466,2.83271 -1.98634,1.51053 -2.68323,0.84256 -3.28639,-3.14993 -0.27196,-1.79986 -0.94014,-3.86465 -1.48494,-4.58838 -1.3222,-1.7565 -4.49265,-3.29741 -8.64717,-4.20272 -4.04242,-0.88087 -4.84986,-1.85499 -3.5544,-4.28815 0.45775,-0.85976 1.18701,-2.22713 1.62056,-3.03859 0.72296,-1.3531 0.62489,-1.7687 -1.1832,-5.01426 -2.33393,-4.18948 -5.33026,-6.41679 -8.23887,-6.1244 -2.21102,0.22226 -5.09103,1.65445 -9.06294,4.50682 -3.4543,2.48066 -6.69577,4.21421 -8.51035,4.55137 -1.01135,0.18797 -1.332,-0.0668 -1.70017,-1.35026 -3.57762,-12.4728 -5.83742,-14.16096 -14.67698,-10.96427 -5.21948,1.88755 -5.90595,1.93819 -7.50261,0.55341 -1.00358,-0.87037 -1.06457,-1.42042 -0.62699,-5.65382 0.72848,-7.04705 -0.8731,-9.46378 -7.31459,-11.0377 -2.96292,-0.72398 -2.94614,-1.43903 0.0973,-4.14166 3.96157,-3.518 4.19832,-5.68789 1.29483,-11.86679 -0.97884,-2.08306 -1.75379,-4.03718 -1.7221,-4.3425 0.1042,-1.00387 3.11661,-1.74364 6.8785,-1.68915 2.03432,0.0295 7.42475,-0.0212 8.26841,-0.33088 1.35646,-0.49788 1.54943,-0.84 1.66798,-2.95733 0.17125,-3.05887 -3.96953,-5.11707 -7.12004,-7.12571 -2.31376,-1.47515 -3.33704,-1.71799 -12.74358,-3.02424 -10.04858,-1.39541 -21.13944,1.07435 -20.46065,-0.14481 1.72418,-3.09675 10.54125,-11.49958 10.41641,-13.01823 -1.03951,-9.26687 -19.63331,-9.27053 -23.89752,-12.41856 10.15411,-4.08766 10.44259,-6.4847 2.21537,-19.12598 13.84113,1.15106 16.13973,-1.0768 14.65881,-11.84177 4.22767,2.99418 22.91892,7.69589 26.55979,6.13459 2.81808,-1.28106 6.91943,-5.41329 7.10007,-7.15352 0.0633,-0.6103 0.39581,-1.24523 0.73881,-1.41099 4.36939,1.73421 5.42176,16.41259 10.14525,17.326 1.3163,0.13664 1.48296,-0.0401 1.66178,-1.76293 1.016,-8.34998 -8.91459,-21.3545 -14.0479,-25.905 5.93607,-3.02416 7.88356,-5.57273 4.76853,-11.96889 -2.45415,-4.90573 -1.9422,-5.45978 2.77959,-3.0082 5.49835,2.85479 7.98177,1.89658 8.51987,-3.28733 0.19034,-1.83376 0.6162,-3.07193 1.22717,-3.56799 1.96456,-1.59507 3.56434,-0.60513 8.41693,5.2084 4.67569,5.60161 7.02458,7.53298 9.4702,7.78684 1.64136,0.17037 2.38176,-0.1972 4.99603,-2.48025 1.68801,-1.47415 3.47958,-2.63766 3.98125,-2.58558 1.38473,0.14374 5.54944,5.62384 9.57976,12.60542 3.78941,6.56432 5.53256,19.97978 12.62351,21.84573 2.08201,0.19832 5.82773,-1.21856 7.3373,-2.77552 3.65841,-5.99868 -2.40041,-21.43903 -1.98952,-27.99794 l 5.62688,0.7316 c 7.7103,1.00248 8.04147,2.44472 10.44048,-3.78149 0.75436,-1.9578 2.38469,-3.28538 2.86665,-3.32329 0.49997,-0.0394 1.64786,1.10088 2.6728,2.65494 z"
           id="path4406"
           inkscape:connector-curvature="0"
           sodipodi:nodetypes="cccccccccscssscsssscscsssssssccscsssssssssscssssssssssssscccccscccccsssssssscccssccc"
           inkscape:export-xdpi="90"
           inkscape:export-ydpi="90" />
        <path
           inkscape:export-ydpi="90"
           inkscape:export-xdpi="90"
           sodipodi:nodetypes="cc"
           inkscape:connector-curvature="0"
           id="path4408"
           d="m 296.99306,503.23604 c 25.32841,2.25914 52.82622,1.01616 102.79849,32.89473"
           style="fill:none;fill-rule:evenodd;stroke:#36c936;stroke-width:2.70000005;stroke-linecap:round;stroke-linejoin:round;stroke-miterlimit:4;stroke-dasharray:none;stroke-opacity:1" />
      </g>
      <circle
         style="opacity:1;fill:#c9db20;fill-opacity:1;stroke:none;stroke-width:9.64400005;stroke-linecap:round;stroke-linejoin:round;stroke-miterlimit:4;stroke-dasharray:none;stroke-dashoffset:0;stroke-opacity:1"
         id="circle4410"
         cx="290.14728"
         cy="803.7522"
         r="32"
         inkscape:export-xdpi="90"
         inkscape:export-ydpi="90" />
      <path
         inkscape:export-ydpi="90"
         inkscape:export-xdpi="90"
         sodipodi:nodetypes="cszc"
         inkscape:connector-curvature="0"
         id="path4412"
         d="m 558.24809,439.91897 c -25.15616,33.98666 -34.35624,27.59055 -72.8922,48.45281 -37.44925,20.27395 -63.75917,46.82456 -70.46365,61.10151 -6.70446,14.27696 -27.60246,82.38834 -27.60246,82.38834"
         style="fill:none;fill-rule:evenodd;stroke:#9c6a1a;stroke-width:13.19999981;stroke-linecap:butt;stroke-linejoin:round;stroke-miterlimit:4;stroke-dasharray:none;stroke-opacity:1" />
      <circle
         style="opacity:1;fill:#e1e817;fill-opacity:1;stroke:none;stroke-width:9.64400005;stroke-linecap:round;stroke-linejoin:round;stroke-miterlimit:4;stroke-dasharray:none;stroke-dashoffset:0;stroke-opacity:1"
         id="circle4414"
         cx="279.48737"
         cy="771.86469"
         r="32"
         inkscape:export-xdpi="90"
         inkscape:export-ydpi="90" />
      <circle
         r="32"
         cy="780.95605"
         cx="332.01529"
         id="circle4416"
         style="opacity:1;fill:#f3f97d;fill-opacity:1;stroke:none;stroke-width:9.64400005;stroke-linecap:round;stroke-linejoin:round;stroke-miterlimit:4;stroke-dasharray:none;stroke-dashoffset:0;stroke-opacity:1"
         inkscape:export-xdpi="90"
         inkscape:export-ydpi="90" />
      <circle
         style="opacity:1;fill:#c1de00;fill-opacity:1;stroke:none;stroke-width:9.64400005;stroke-linecap:round;stroke-linejoin:round;stroke-miterlimit:4;stroke-dasharray:none;stroke-dashoffset:0;stroke-opacity:1"
         id="circle4418"
         cx="318.88333"
         cy="745.60071"
         r="32"
         inkscape:export-xdpi="90"
         inkscape:export-ydpi="90" />
      <circle
         r="32"
         cy="681.96112"
         cx="329.995"
         id="circle4420"
         style="opacity:1;fill:#00ff00;fill-opacity:1;stroke:none;stroke-width:9.64400005;stroke-linecap:round;stroke-linejoin:round;stroke-miterlimit:4;stroke-dasharray:none;stroke-dashoffset:0;stroke-opacity:1"
         inkscape:export-xdpi="90"
         inkscape:export-ydpi="90" />
      <circle
         style="opacity:1;fill:#f6ff00;fill-opacity:1;stroke:none;stroke-width:9.64400005;stroke-linecap:round;stroke-linejoin:round;stroke-miterlimit:4;stroke-dasharray:none;stroke-dashoffset:0;stroke-opacity:1"
         id="circle4422"
         cx="286.55844"
         cy="711.25549"
         r="32"
         inkscape:export-xdpi="90"
         inkscape:export-ydpi="90" />
      <circle
         r="32"
         cy="629.43317"
         cx="316.86301"
         id="circle4424"
         style="opacity:1;fill:#f6ff00;fill-opacity:1;stroke:none;stroke-width:9.64400005;stroke-linecap:round;stroke-linejoin:round;stroke-miterlimit:4;stroke-dasharray:none;stroke-dashoffset:0;stroke-opacity:1"
         inkscape:export-xdpi="90"
         inkscape:export-ydpi="90" />
      <circle
         style="opacity:1;fill:#e3eb00;fill-opacity:1;stroke:none;stroke-width:9.64400005;stroke-linecap:round;stroke-linejoin:round;stroke-miterlimit:4;stroke-dasharray:none;stroke-dashoffset:0;stroke-opacity:1"
         id="circle4426"
         cx="329.995"
         cy="681.96112"
         r="32"
         inkscape:export-xdpi="90"
         inkscape:export-ydpi="90" />
      <circle
         style="opacity:1;fill:#c4c936;fill-opacity:1;stroke:none;stroke-width:9.64400005;stroke-linecap:round;stroke-linejoin:round;stroke-miterlimit:4;stroke-dasharray:none;stroke-dashoffset:0;stroke-opacity:1"
         id="circle4428"
         cx="507.96237"
         cy="628.41937"
         r="32"
         inkscape:export-xdpi="90"
         inkscape:export-ydpi="90" />
      <circle
         r="32"
         cy="622.48474"
         cx="451.31485"
         id="circle4430"
         style="opacity:1;fill:#d9e01f;fill-opacity:1;stroke:none;stroke-width:9.64400005;stroke-linecap:round;stroke-linejoin:round;stroke-miterlimit:4;stroke-dasharray:none;stroke-dashoffset:0;stroke-opacity:1"
         inkscape:export-xdpi="90"
         inkscape:export-ydpi="90" />
      <circle
         style="opacity:1;fill:#e9ef4b;fill-opacity:1;stroke:none;stroke-width:9.64400005;stroke-linecap:round;stroke-linejoin:round;stroke-miterlimit:4;stroke-dasharray:none;stroke-dashoffset:0;stroke-opacity:1"
         id="circle4432"
         cx="386.56354"
         cy="751.66162"
         r="32"
         inkscape:export-xdpi="90"
         inkscape:export-ydpi="90" />
      <circle
         r="32"
         cy="699.13367"
         cx="369.39093"
         id="circle4434"
         style="opacity:1;fill:#c4c936;fill-opacity:1;stroke:none;stroke-width:9.64400005;stroke-linecap:round;stroke-linejoin:round;stroke-miterlimit:4;stroke-dasharray:none;stroke-dashoffset:0;stroke-opacity:1"
         inkscape:export-xdpi="90"
         inkscape:export-ydpi="90" />
      <circle
         style="opacity:1;fill:#d9e01f;fill-opacity:1;stroke:none;stroke-width:9.64400005;stroke-linecap:round;stroke-linejoin:round;stroke-miterlimit:4;stroke-dasharray:none;stroke-dashoffset:0;stroke-opacity:1"
         id="circle4436"
         cx="431.01025"
         cy="713.27582"
         r="32"
         inkscape:export-xdpi="90"
         inkscape:export-ydpi="90" />
      <circle
         r="32"
         cy="575.89508"
         cx="345.14728"
         id="circle4438"
         style="opacity:1;fill:#e9ef4b;fill-opacity:1;stroke:none;stroke-width:9.64400005;stroke-linecap:round;stroke-linejoin:round;stroke-miterlimit:4;stroke-dasharray:none;stroke-dashoffset:0;stroke-opacity:1"
         inkscape:export-xdpi="90"
         inkscape:export-ydpi="90" />
      <circle
         style="opacity:1;fill:#f9ff71;fill-opacity:1;stroke:none;stroke-width:9.64400005;stroke-linecap:round;stroke-linejoin:round;stroke-miterlimit:4;stroke-dasharray:none;stroke-dashoffset:0;stroke-opacity:1"
         id="circle4440"
         cx="479.49756"
         cy="677.92047"
         r="32"
         inkscape:export-xdpi="90"
         inkscape:export-ydpi="90" />
      <circle
         r="32"
         cy="588.01697"
         cx="404.74628"
         id="circle4442"
         style="opacity:1;fill:#d3db00;fill-opacity:1;stroke:none;stroke-width:9.64400005;stroke-linecap:round;stroke-linejoin:round;stroke-miterlimit:4;stroke-dasharray:none;stroke-dashoffset:0;stroke-opacity:1"
         inkscape:export-xdpi="90"
         inkscape:export-ydpi="90" />
      <circle
         style="opacity:1;fill:#faff71;fill-opacity:1;stroke:none;stroke-width:9.64400005;stroke-linecap:round;stroke-linejoin:round;stroke-miterlimit:4;stroke-dasharray:none;stroke-dashoffset:0;stroke-opacity:1"
         id="circle4444"
         cx="380.50262"
         cy="641.55493"
         r="32"
         inkscape:export-xdpi="90"
         inkscape:export-ydpi="90" />
      <circle
         r="32"
         cy="662.76819"
         cx="428.98996"
         id="circle4446"
         style="opacity:1;fill:#f6ff00;fill-opacity:1;stroke:none;stroke-width:9.64400005;stroke-linecap:round;stroke-linejoin:round;stroke-miterlimit:4;stroke-dasharray:none;stroke-dashoffset:0;stroke-opacity:1"
         inkscape:export-xdpi="90"
         inkscape:export-ydpi="90" />
      <circle
         r="32"
         cy="584.11261"
         cx="457.27274"
         id="circle4448"
         style="opacity:1;fill:#f6ff00;fill-opacity:1;stroke:none;stroke-width:9.64400005;stroke-linecap:round;stroke-linejoin:round;stroke-miterlimit:4;stroke-dasharray:none;stroke-dashoffset:0;stroke-opacity:1"
         inkscape:export-xdpi="90"
         inkscape:export-ydpi="90" />
    </g>
  </g>
</svg>
